<svg xmlns="http://www.w3.org/2000/svg" viewBox="0 0 2048 2048" width="2048" height="2048">
  <path d="M 991.76 410.14 L 988.53 410.37 L 985.30 410.62 L 982.08 410.89 L 978.85 411.17 L 975.63 411.47 L 972.40 411.79 L 969.17 412.13 L 965.94 412.48 L 962.71 412.86 L 959.48 413.25 L 956.24 413.66 L 953.00 414.08 L 949.75 414.52 L 946.49 414.99 L 943.24 415.46 L 939.97 415.96 L 936.70 416.47 L 933.41 417.00 L 930.12 417.55 L 926.82 418.11 L 923.52 418.70 L 920.20 419.29 L 916.87 419.91 L 913.52 420.54 L 910.17 421.19 L 906.80 421.86 L 903.42 422.55 L 900.03 423.25 L 896.62 423.97 L 893.20 424.70 L 889.76 425.45 L 886.30 426.22 L 882.83 427.01 L 879.36 427.81 L 875.90 428.62 L 872.51 429.45 L 869.20 430.28 L 866.01 431.11 L 862.97 431.95 L 860.11 432.78 L 857.46 433.60 L 855.04 434.42 L 852.90 435.22 L 851.06 436.00 L 849.55 436.74 L 848.38 437.43 L 847.59 438.06 L 847.21 438.61 L 847.25 439.07 L 847.76 439.42 L 848.72 439.67 L 850.11 439.81 L 851.89 439.87 L 854.04 439.84 L 856.50 439.74 L 859.26 439.58 L 862.27 439.36 L 865.50 439.10 L 868.92 438.80 L 872.49 438.47 L 876.17 438.13 L 879.94 437.79 L 883.75 437.44 L 887.58 437.11 L 891.38 436.79 L 895.13 436.51 L 898.83 436.25 L 902.49 436.02 L 906.10 435.81 L 909.67 435.64 L 913.19 435.48 L 916.68 435.35 L 920.13 435.25 L 923.54 435.16 L 926.92 435.10 L 930.28 435.06 L 933.60 435.04 L 936.90 435.04 L 940.17 435.06 L 943.42 435.09 L 946.65 435.15 L 949.86 435.22 L 953.06 435.31 L 956.24 435.41 L 959.41 435.52 L 962.58 435.65 L 965.73 435.80 L 968.88 435.95 L 972.03 436.12 L 975.18 436.30 L 978.33 436.49 L 981.48 436.69 L 984.64 436.90 L 987.80 437.11 L 990.98 437.33 L 994.17 437.56 L 997.37 437.80 L 1000.59 438.04 L 1003.82 438.28 L 1007.06 438.53 L 1010.32 438.79 L 1013.59 439.06 L 1016.87 439.34 L 1020.17 439.62 L 1023.47 439.92 L 1026.78 440.22 L 1030.10 440.53 L 1033.42 440.86 L 1036.75 441.20 L 1040.09 441.55 L 1043.43 441.91 L 1046.77 442.29 L 1050.12 442.68 L 1053.47 443.09 L 1056.82 443.51 L 1060.17 443.94 L 1063.52 444.40 L 1066.87 444.87 L 1070.22 445.35 L 1073.56 445.86 L 1076.90 446.38 L 1080.23 446.93 L 1083.56 447.49 L 1086.88 448.08 L 1090.20 448.68 L 1093.51 449.31 L 1096.81 449.96 L 1100.10 450.63 L 1103.37 451.32 L 1106.64 452.04 L 1109.90 452.78 L 1113.15 453.54 L 1116.39 454.32 L 1119.62 455.13 L 1122.84 455.96 L 1126.05 456.81 L 1129.25 457.68 L 1132.44 458.57 L 1135.63 459.49 L 1138.80 460.43 L 1141.96 461.38 L 1145.11 462.36 L 1148.26 463.36 L 1151.39 464.38 L 1154.51 465.42 L 1157.63 466.48 L 1160.73 467.56 L 1163.83 468.67 L 1166.92 469.79 L 1169.99 470.93 L 1173.06 472.09 L 1176.12 473.27 L 1179.17 474.48 L 1182.21 475.70 L 1185.24 476.94 L 1188.27 478.20 L 1191.28 479.47 L 1194.28 480.77 L 1197.28 482.09 L 1200.27 483.42 L 1203.24 484.77 L 1206.21 486.15 L 1209.17 487.54 L 1212.12 488.94 L 1215.06 490.37 L 1218.00 491.81 L 1220.92 493.27 L 1223.84 494.75 L 1226.74 496.25 L 1229.64 497.76 L 1232.53 499.29 L 1235.41 500.84 L 1238.28 502.41 L 1241.15 503.99 L 1244.00 505.59 L 1246.85 507.20 L 1249.69 508.83 L 1252.52 510.48 L 1255.34 512.14 L 1258.15 513.82 L 1260.95 515.52 L 1263.75 517.23 L 1266.54 518.96 L 1269.32 520.70 L 1272.09 522.46 L 1274.85 524.23 L 1277.61 526.02 L 1280.35 527.82 L 1283.09 529.64 L 1285.82 531.47 L 1288.55 533.32 L 1291.26 535.18 L 1293.97 537.05 L 1296.67 538.94 L 1299.36 540.84 L 1302.04 542.76 L 1304.71 544.69 L 1307.38 546.64 L 1310.04 548.60 L 1312.69 550.57 L 1315.33 552.55 L 1317.96 554.55 L 1320.59 556.56 L 1323.20 558.59 L 1325.81 560.63 L 1328.40 562.68 L 1330.99 564.75 L 1333.57 566.83 L 1336.14 568.92 L 1338.69 571.03 L 1341.24 573.15 L 1343.78 575.28 L 1346.30 577.43 L 1348.82 579.59 L 1351.33 581.76 L 1353.82 583.95 L 1356.30 586.15 L 1358.78 588.36 L 1361.24 590.58 L 1363.69 592.82 L 1366.12 595.07 L 1368.55 597.34 L 1370.96 599.61 L 1373.37 601.90 L 1375.76 604.21 L 1378.13 606.52 L 1380.50 608.85 L 1382.85 611.19 L 1385.19 613.54 L 1387.51 615.91 L 1389.83 618.29 L 1392.13 620.68 L 1394.41 623.08 L 1396.69 625.50 L 1398.95 627.92 L 1401.19 630.36 L 1403.42 632.82 L 1405.64 635.28 L 1407.84 637.76 L 1410.03 640.25 L 1412.20 642.75 L 1414.36 645.27 L 1416.50 647.79 L 1418.63 650.33 L 1420.74 652.88 L 1422.84 655.45 L 1424.92 658.02 L 1426.99 660.61 L 1429.04 663.21 L 1431.07 665.82 L 1433.09 668.44 L 1435.09 671.08 L 1437.07 673.72 L 1439.04 676.38 L 1440.99 679.05 L 1442.93 681.73 L 1444.84 684.42 L 1446.74 687.13 L 1448.63 689.85 L 1450.49 692.57 L 1452.34 695.31 L 1454.17 698.07 L 1455.98 700.83 L 1457.77 703.60 L 1459.55 706.39 L 1461.30 709.18 L 1463.04 711.99 L 1464.76 714.81 L 1466.46 717.64 L 1468.14 720.49 L 1469.80 723.34 L 1471.44 726.20 L 1473.06 729.08 L 1474.67 731.97 L 1476.25 734.86 L 1477.81 737.77 L 1479.35 740.69 L 1480.88 743.62 L 1482.38 746.56 L 1483.86 749.51 L 1485.32 752.47 L 1486.76 755.45 L 1488.19 758.43 L 1489.59 761.42 L 1490.97 764.42 L 1492.33 767.43 L 1493.67 770.45 L 1494.99 773.48 L 1496.29 776.52 L 1497.57 779.56 L 1498.83 782.62 L 1500.07 785.68 L 1501.29 788.75 L 1502.49 791.83 L 1503.66 794.92 L 1504.82 798.02 L 1505.96 801.12 L 1507.07 804.23 L 1508.17 807.35 L 1509.24 810.48 L 1510.30 813.61 L 1511.33 816.75 L 1512.35 819.90 L 1513.34 823.05 L 1514.31 826.21 L 1515.26 829.37 L 1516.19 832.55 L 1517.10 835.73 L 1517.99 838.91 L 1518.86 842.10 L 1519.71 845.30 L 1520.53 848.50 L 1521.34 851.70 L 1522.12 854.91 L 1522.89 858.13 L 1523.63 861.35 L 1524.35 864.58 L 1525.05 867.81 L 1525.73 871.04 L 1526.39 874.28 L 1527.03 877.52 L 1527.65 880.77 L 1528.24 884.02 L 1528.82 887.27 L 1529.37 890.52 L 1529.90 893.78 L 1530.41 897.05 L 1530.90 900.31 L 1531.37 903.58 L 1531.82 906.85 L 1532.24 910.13 L 1532.65 913.40 L 1533.03 916.68 L 1533.39 919.96 L 1533.73 923.24 L 1534.05 926.52 L 1534.35 929.81 L 1534.63 933.09 L 1534.88 936.38 L 1535.12 939.67 L 1535.33 942.96 L 1535.52 946.25 L 1535.69 949.54 L 1535.83 952.83 L 1535.96 956.12 L 1536.06 959.41 L 1536.15 962.70 L 1536.21 965.99 L 1536.24 969.28 L 1536.26 972.57 L 1536.26 975.86 L 1536.23 979.14 L 1536.18 982.43 L 1536.11 985.72 L 1536.02 989.00 L 1535.91 992.28 L 1535.77 995.56 L 1535.62 998.84 L 1535.44 1002.12 L 1535.23 1005.40 L 1535.01 1008.67 L 1534.77 1011.94 L 1534.50 1015.21 L 1534.21 1018.47 L 1533.90 1021.73 L 1533.56 1024.99 L 1533.21 1028.25 L 1532.83 1031.50 L 1532.43 1034.75 L 1532.01 1038.00 L 1531.57 1041.24 L 1531.10 1044.47 L 1530.61 1047.71 L 1530.10 1050.94 L 1529.57 1054.16 L 1529.01 1057.38 L 1528.43 1060.60 L 1527.83 1063.81 L 1527.21 1067.01 L 1526.56 1070.21 L 1525.90 1073.40 L 1525.21 1076.59 L 1524.49 1079.78 L 1523.76 1082.95 L 1523.00 1086.12 L 1522.22 1089.29 L 1521.42 1092.45 L 1520.59 1095.60 L 1519.75 1098.75 L 1518.88 1101.88 L 1517.98 1105.02 L 1517.07 1108.14 L 1516.13 1111.26 L 1515.17 1114.37 L 1514.18 1117.47 L 1513.18 1120.56 L 1512.15 1123.65 L 1511.10 1126.73 L 1510.02 1129.80 L 1508.92 1132.86 L 1507.80 1135.91 L 1506.66 1138.96 L 1505.49 1142.00 L 1504.30 1145.02 L 1503.09 1148.04 L 1501.85 1151.05 L 1500.59 1154.05 L 1499.31 1157.04 L 1498.01 1160.02 L 1496.68 1162.99 L 1495.34 1165.95 L 1493.96 1168.90 L 1492.57 1171.84 L 1491.16 1174.77 L 1489.72 1177.69 L 1488.27 1180.60 L 1486.79 1183.50 L 1485.29 1186.39 L 1483.76 1189.27 L 1482.22 1192.14 L 1480.66 1195.00 L 1479.07 1197.85 L 1477.47 1200.69 L 1475.84 1203.51 L 1474.20 1206.33 L 1472.53 1209.13 L 1470.84 1211.93 L 1469.14 1214.71 L 1467.41 1217.48 L 1465.66 1220.24 L 1463.90 1222.99 L 1462.11 1225.72 L 1460.31 1228.45 L 1458.48 1231.16 L 1456.64 1233.86 L 1454.78 1236.55 L 1452.89 1239.23 L 1450.99 1241.89 L 1449.07 1244.55 L 1447.14 1247.19 L 1445.18 1249.81 L 1443.21 1252.43 L 1441.21 1255.03 L 1439.20 1257.62 L 1437.17 1260.20 L 1435.13 1262.76 L 1433.06 1265.32 L 1430.98 1267.85 L 1428.88 1270.38 L 1426.77 1272.89 L 1424.63 1275.39 L 1422.48 1277.88 L 1420.32 1280.35 L 1418.13 1282.81 L 1415.93 1285.25 L 1413.71 1287.69 L 1411.48 1290.10 L 1409.23 1292.51 L 1406.96 1294.90 L 1404.68 1297.27 L 1402.38 1299.63 L 1400.07 1301.98 L 1397.74 1304.31 L 1395.39 1306.63 L 1393.03 1308.94 L 1390.66 1311.22 L 1388.27 1313.50 L 1385.86 1315.76 L 1383.44 1318.00 L 1381.01 1320.23 L 1378.56 1322.45 L 1376.09 1324.65 L 1373.61 1326.83 L 1371.12 1329.00 L 1368.61 1331.15 L 1366.09 1333.29 L 1363.56 1335.42 L 1361.01 1337.52 L 1358.44 1339.61 L 1355.87 1341.69 L 1353.28 1343.75 L 1350.68 1345.79 L 1348.06 1347.82 L 1345.43 1349.83 L 1342.79 1351.82 L 1340.14 1353.80 L 1337.47 1355.76 L 1334.79 1357.71 L 1332.10 1359.63 L 1329.40 1361.55 L 1326.68 1363.44 L 1323.95 1365.32 L 1321.21 1367.18 L 1318.46 1369.02 L 1315.70 1370.85 L 1312.93 1372.66 L 1310.14 1374.45 L 1307.34 1376.22 L 1304.54 1377.98 L 1301.72 1379.72 L 1298.89 1381.44 L 1296.05 1383.14 L 1293.20 1384.83 L 1290.33 1386.49 L 1287.46 1388.14 L 1284.58 1389.77 L 1281.69 1391.39 L 1278.79 1392.98 L 1275.88 1394.56 L 1272.96 1396.11 L 1270.03 1397.65 L 1267.09 1399.17 L 1264.14 1400.67 L 1261.18 1402.15 L 1258.21 1403.62 L 1255.23 1405.06 L 1252.25 1406.49 L 1249.25 1407.89 L 1246.25 1409.28 L 1243.24 1410.64 L 1240.22 1411.99 L 1237.20 1413.32 L 1234.16 1414.63 L 1231.12 1415.91 L 1228.07 1417.18 L 1225.01 1418.43 L 1221.94 1419.66 L 1218.87 1420.87 L 1215.79 1422.05 L 1212.70 1423.22 L 1209.61 1424.37 L 1206.50 1425.49 L 1203.40 1426.60 L 1200.28 1427.68 L 1197.16 1428.75 L 1194.03 1429.79 L 1190.90 1430.81 L 1187.76 1431.81 L 1184.61 1432.79 L 1181.46 1433.75 L 1178.30 1434.69 L 1175.14 1435.61 L 1171.97 1436.50 L 1168.79 1437.37 L 1165.62 1438.23 L 1162.43 1439.06 L 1159.24 1439.86 L 1156.05 1440.65 L 1152.85 1441.41 L 1149.64 1442.15 L 1146.44 1442.87 L 1143.22 1443.57 L 1140.01 1444.24 L 1136.79 1444.90 L 1133.56 1445.53 L 1130.33 1446.14 L 1127.10 1446.73 L 1123.87 1447.29 L 1120.63 1447.83 L 1117.39 1448.36 L 1114.14 1448.86 L 1110.89 1449.33 L 1107.64 1449.79 L 1104.39 1450.22 L 1101.13 1450.64 L 1097.87 1451.03 L 1094.61 1451.40 L 1091.35 1451.74 L 1088.08 1452.07 L 1084.81 1452.37 L 1081.54 1452.66 L 1078.27 1452.92 L 1075.00 1453.16 L 1071.72 1453.38 L 1068.45 1453.57 L 1065.17 1453.75 L 1061.89 1453.90 L 1058.62 1454.04 L 1055.34 1454.15 L 1052.06 1454.24 L 1048.77 1454.31 L 1045.49 1454.36 L 1042.21 1454.38 L 1038.93 1454.39 L 1035.65 1454.37 L 1032.37 1454.34 L 1029.09 1454.28 L 1025.81 1454.20 L 1022.52 1454.10 L 1019.25 1453.98 L 1015.97 1453.84 L 1012.69 1453.67 L 1009.41 1453.49 L 1006.14 1453.29 L 1002.86 1453.06 L 999.59 1452.81 L 996.32 1452.55 L 993.05 1452.26 L 989.78 1451.95 L 986.51 1451.62 L 983.25 1451.27 L 979.99 1450.90 L 976.73 1450.51 L 973.47 1450.10 L 970.22 1449.67 L 966.97 1449.21 L 963.72 1448.74 L 960.47 1448.25 L 957.23 1447.73 L 953.99 1447.20 L 950.75 1446.64 L 947.52 1446.07 L 944.29 1445.47 L 941.07 1444.86 L 937.85 1444.22 L 934.63 1443.57 L 931.42 1442.89 L 928.21 1442.19 L 925.01 1441.48 L 921.81 1440.74 L 918.61 1439.98 L 915.42 1439.21 L 912.24 1438.41 L 909.06 1437.59 L 905.88 1436.75 L 902.71 1435.90 L 899.55 1435.02 L 896.39 1434.12 L 893.24 1433.21 L 890.09 1432.27 L 886.95 1431.32 L 883.82 1430.34 L 880.69 1429.34 L 877.57 1428.33 L 874.45 1427.29 L 871.34 1426.24 L 868.24 1425.17 L 865.15 1424.07 L 862.06 1422.96 L 858.98 1421.83 L 855.91 1420.67 L 852.84 1419.50 L 849.78 1418.31 L 846.73 1417.10 L 843.69 1415.87 L 840.66 1414.62 L 837.63 1413.35 L 834.61 1412.06 L 831.60 1410.76 L 828.60 1409.43 L 825.61 1408.08 L 822.62 1406.72 L 819.65 1405.34 L 816.68 1403.93 L 813.73 1402.51 L 810.78 1401.07 L 807.84 1399.61 L 804.91 1398.13 L 801.99 1396.63 L 799.08 1395.12 L 796.18 1393.58 L 793.30 1392.02 L 790.42 1390.45 L 787.55 1388.86 L 784.69 1387.25 L 781.84 1385.62 L 779.01 1383.97 L 776.18 1382.30 L 773.36 1380.61 L 770.56 1378.91 L 767.77 1377.19 L 764.99 1375.44 L 762.22 1373.68 L 759.46 1371.90 L 756.71 1370.11 L 753.98 1368.29 L 751.26 1366.46 L 748.55 1364.60 L 745.85 1362.73 L 743.16 1360.84 L 740.49 1358.93 L 737.83 1357.01 L 735.18 1355.06 L 732.55 1353.10 L 729.93 1351.12 L 727.32 1349.12 L 724.72 1347.11 L 722.14 1345.08 L 719.57 1343.03 L 717.01 1340.96 L 714.47 1338.87 L 711.94 1336.77 L 709.43 1334.65 L 706.93 1332.52 L 704.44 1330.37 L 701.97 1328.20 L 699.51 1326.01 L 697.06 1323.81 L 694.63 1321.59 L 692.22 1319.36 L 689.82 1317.11 L 687.43 1314.84 L 685.06 1312.56 L 682.70 1310.27 L 680.36 1307.95 L 678.03 1305.63 L 675.72 1303.28 L 673.42 1300.92 L 671.14 1298.55 L 668.87 1296.16 L 666.62 1293.76 L 664.39 1291.34 L 662.17 1288.91 L 659.96 1286.46 L 657.77 1284.00 L 655.60 1281.53 L 653.45 1279.04 L 651.31 1276.53 L 649.18 1274.02 L 647.08 1271.49 L 644.98 1268.94 L 642.91 1266.38 L 640.85 1263.81 L 638.81 1261.23 L 636.79 1258.63 L 634.78 1256.02 L 632.79 1253.39 L 630.82 1250.75 L 628.86 1248.10 L 626.92 1245.44 L 625.00 1242.77 L 623.10 1240.08 L 621.21 1237.38 L 619.34 1234.67 L 617.49 1231.95 L 615.66 1229.21 L 613.85 1226.46 L 612.05 1223.70 L 610.27 1220.93 L 608.51 1218.15 L 606.77 1215.36 L 605.05 1212.55 L 603.35 1209.74 L 601.66 1206.91 L 599.99 1204.07 L 598.35 1201.23 L 596.72 1198.37 L 595.11 1195.50 L 593.52 1192.62 L 591.95 1189.73 L 590.39 1186.83 L 588.86 1183.92 L 587.35 1181.00 L 585.86 1178.07 L 584.38 1175.13 L 582.93 1172.18 L 581.50 1169.22 L 580.08 1166.26 L 578.69 1163.28 L 577.32 1160.29 L 575.96 1157.30 L 574.63 1154.29 L 573.32 1151.28 L 572.03 1148.26 L 570.76 1145.23 L 569.51 1142.19 L 568.28 1139.14 L 567.07 1136.09 L 565.89 1133.03 L 564.72 1129.96 L 563.58 1126.88 L 562.45 1123.79 L 561.35 1120.70 L 560.27 1117.60 L 559.22 1114.49 L 558.18 1111.37 L 557.17 1108.25 L 556.18 1105.12 L 555.21 1101.98 L 554.26 1098.84 L 553.33 1095.69 L 552.43 1092.53 L 551.55 1089.37 L 550.69 1086.20 L 549.86 1083.02 L 549.05 1079.84 L 548.26 1076.65 L 547.49 1073.46 L 546.75 1070.26 L 546.03 1067.05 L 545.33 1063.84 L 544.66 1060.63 L 544.01 1057.41 L 543.38 1054.18 L 542.78 1050.95 L 542.20 1047.71 L 541.65 1044.47 L 541.12 1041.23 L 540.61 1037.98 L 540.13 1034.72 L 539.67 1031.46 L 539.23 1028.20 L 538.83 1024.93 L 538.44 1021.66 L 538.08 1018.39 L 537.74 1015.11 L 537.43 1011.83 L 537.15 1008.54 L 536.89 1005.25 L 536.65 1001.96 L 536.44 998.66 L 536.26 995.36 L 536.10 992.06 L 535.96 988.76 L 535.85 985.45 L 535.77 982.14 L 535.71 978.83 L 535.68 975.51 L 535.68 972.20 L 535.70 968.88 L 535.75 965.56 L 535.82 962.23 L 535.92 958.91 L 536.05 955.58 L 536.20 952.26 L 536.37 948.93 L 536.58 945.61 L 536.81 942.28 L 537.06 938.96 L 537.34 935.64 L 537.64 932.33 L 537.96 929.01 L 538.31 925.71 L 538.69 922.40 L 539.08 919.11 L 539.50 915.81 L 539.94 912.53 L 540.41 909.25 L 540.90 905.98 L 541.41 902.72 L 541.94 899.47 L 542.49 896.22 L 543.06 892.99 L 543.66 889.77 L 544.28 886.56 L 544.91 883.36 L 545.57 880.17 L 546.25 877.00 L 546.95 873.84 L 547.66 870.69 L 548.40 867.56 L 549.16 864.45 L 549.93 861.35 L 550.72 858.27 L 551.54 855.20 L 552.38 852.18 L 553.26 849.20 L 554.20 846.31 L 555.21 843.53 L 556.31 840.86 L 557.49 838.34 L 558.79 836.00 L 560.21 833.84 L 561.77 831.90 L 563.48 830.20 L 565.36 828.76 L 567.41 827.59 L 569.65 826.74 L 572.09 826.21 L 574.75 826.02 L 577.65 826.21 L 580.74 826.71 L 584.00 827.46 L 587.38 828.36 L 590.84 829.35 L 594.33 830.34 L 597.82 831.25 L 601.26 832.01 L 604.62 832.54 L 607.91 832.84 L 611.14 832.94 L 614.32 832.86 L 617.48 832.62 L 620.64 832.25 L 623.82 831.75 L 627.02 831.17 L 630.27 830.50 L 633.55 829.76 L 636.84 828.93 L 640.15 828.01 L 643.44 827.00 L 646.72 825.89 L 649.97 824.69 L 653.17 823.38 L 656.32 821.97 L 659.40 820.44 L 662.40 818.80 L 665.30 817.05 L 668.10 815.17 L 670.78 813.17 L 673.33 811.04 L 675.74 808.78 L 677.99 806.38 L 680.07 803.84 L 681.97 801.16 L 683.69 798.34 L 685.25 795.40 L 686.66 792.36 L 687.95 789.24 L 689.13 786.06 L 690.24 782.84 L 691.28 779.60 L 692.29 776.37 L 693.28 773.15 L 694.27 769.98 L 695.28 766.88 L 696.34 763.86 L 697.46 760.94 L 698.67 758.14 L 699.99 755.49 L 701.43 753.01 L 703.03 750.72 L 704.78 748.61 L 706.69 746.70 L 708.74 744.95 L 710.92 743.35 L 713.23 741.90 L 715.65 740.58 L 718.18 739.36 L 720.80 738.25 L 723.51 737.22 L 726.30 736.26 L 729.16 735.36 L 732.08 734.50 L 735.04 733.67 L 738.05 732.85 L 741.09 732.04 L 744.15 731.21 L 747.23 730.36 L 750.33 729.50 L 753.44 728.62 L 756.56 727.72 L 759.70 726.80 L 762.84 725.86 L 765.99 724.90 L 769.15 723.92 L 772.31 722.90 L 775.46 721.87 L 778.62 720.80 L 781.77 719.71 L 784.91 718.59 L 788.05 717.43 L 791.17 716.25 L 794.28 715.03 L 797.38 713.78 L 800.46 712.49 L 803.54 711.18 L 806.59 709.83 L 809.63 708.45 L 812.66 707.05 L 815.68 705.61 L 818.67 704.14 L 821.66 702.64 L 824.62 701.12 L 827.58 699.56 L 830.51 697.98 L 833.43 696.37 L 836.33 694.73 L 839.22 693.06 L 842.08 691.37 L 844.94 689.65 L 847.77 687.91 L 850.58 686.14 L 853.38 684.35 L 856.16 682.53 L 858.92 680.69 L 861.66 678.82 L 864.38 676.93 L 867.08 675.02 L 869.77 673.08 L 872.43 671.13 L 875.07 669.15 L 877.69 667.15 L 880.29 665.13 L 882.87 663.09 L 885.43 661.03 L 887.97 658.95 L 890.48 656.85 L 892.97 654.73 L 895.44 652.60 L 897.89 650.44 L 900.32 648.27 L 902.72 646.08 L 905.09 643.87 L 907.44 641.64 L 909.77 639.38 L 912.07 637.11 L 914.34 634.81 L 916.58 632.49 L 918.80 630.15 L 920.99 627.78 L 923.15 625.39 L 925.28 622.98 L 927.37 620.54 L 929.44 618.07 L 931.48 615.57 L 933.48 613.05 L 935.45 610.50 L 937.39 607.92 L 939.29 605.31 L 941.16 602.67 L 942.99 600.00 L 944.78 597.30 L 946.54 594.57 L 948.27 591.81 L 949.95 589.01 L 951.60 586.18 L 953.21 583.32 L 954.77 580.42 L 956.30 577.48 L 957.79 574.51 L 959.23 571.51 L 960.64 568.46 L 962.00 565.38 L 963.32 562.26 L 964.59 559.10 L 965.82 555.90 L 967.00 552.67 L 968.13 549.40 L 969.20 546.10 L 970.19 542.77 L 971.11 539.42 L 971.94 536.06 L 972.68 532.69 L 973.32 529.31 L 973.85 525.92 L 974.26 522.54 L 974.54 519.17 L 974.70 515.80 L 974.71 512.46 L 974.57 509.13 L 974.28 505.83 L 973.83 502.56 L 973.20 499.32 L 972.40 496.12 L 971.43 492.97 L 970.30 489.87 L 969.01 486.82 L 967.58 483.83 L 966.02 480.92 L 964.32 478.07 L 962.50 475.31 L 960.56 472.63 L 958.51 470.03 L 956.36 467.54 L 954.12 465.15 L 951.79 462.86 L 949.38 460.69 L 946.90 458.64 L 944.36 456.71 L 941.75 454.91 L 939.10 453.24 L 936.40 451.71 L 933.64 450.30 L 930.85 449.02 L 928.01 447.85 L 925.13 446.81 L 922.21 445.87 L 919.25 445.05 L 916.26 444.33 L 913.24 443.71 L 910.18 443.19 L 907.09 442.77 L 903.98 442.44 L 900.83 442.19 L 897.67 442.03 L 894.48 441.95 L 891.27 441.94 L 888.05 442.01 L 884.80 442.15 L 881.55 442.35 L 878.28 442.62 L 875.00 442.94 L 871.71 443.32 L 868.41 443.75 L 865.11 444.22 L 861.80 444.74 L 858.50 445.30 L 855.19 445.90 L 851.89 446.53 L 848.59 447.19 L 845.30 447.87 L 842.01 448.58 L 838.74 449.31 L 835.47 450.07 L 832.21 450.84 L 828.96 451.64 L 825.71 452.46 L 822.48 453.30 L 819.25 454.16 L 816.03 455.05 L 812.82 455.96 L 809.62 456.89 L 806.43 457.84 L 803.24 458.81 L 800.07 459.81 L 796.90 460.82 L 793.74 461.86 L 790.60 462.92 L 787.46 463.99 L 784.32 465.09 L 781.20 466.22 L 778.09 467.36 L 774.99 468.52 L 771.89 469.70 L 768.81 470.90 L 765.73 472.13 L 762.66 473.37 L 759.61 474.63 L 756.56 475.92 L 753.52 477.22 L 750.50 478.54 L 747.48 479.89 L 744.47 481.25 L 741.47 482.63 L 738.48 484.03 L 735.51 485.45 L 732.54 486.89 L 729.58 488.35 L 726.63 489.83 L 723.69 491.33 L 720.77 492.84 L 717.85 494.38 L 714.94 495.93 L 712.05 497.50 L 709.16 499.09 L 706.29 500.70 L 703.42 502.33 L 700.57 503.97 L 697.73 505.64 L 694.89 507.32 L 692.07 509.02 L 689.26 510.73 L 686.46 512.47 L 683.68 514.22 L 680.90 515.99 L 678.13 517.77 L 675.38 519.58 L 672.64 521.40 L 669.91 523.24 L 667.19 525.09 L 664.48 526.96 L 661.78 528.85 L 659.10 530.75 L 656.42 532.68 L 653.76 534.61 L 651.11 536.57 L 648.47 538.54 L 645.85 540.53 L 643.23 542.53 L 640.63 544.55 L 638.04 546.58 L 635.46 548.63 L 632.90 550.70 L 630.35 552.78 L 627.81 554.87 L 625.28 556.99 L 622.76 559.11 L 620.26 561.26 L 617.77 563.41 L 615.29 565.59 L 612.83 567.77 L 610.37 569.97 L 607.93 572.19 L 605.51 574.42 L 603.09 576.67 L 600.69 578.93 L 598.31 581.20 L 595.93 583.49 L 593.57 585.79 L 591.22 588.11 L 588.89 590.44 L 586.57 592.78 L 584.26 595.14 L 581.97 597.51 L 579.69 599.89 L 577.42 602.29 L 575.17 604.70 L 572.93 607.13 L 570.70 609.56 L 568.49 612.02 L 566.30 614.48 L 564.11 616.95 L 561.94 619.44 L 559.79 621.94 L 557.65 624.46 L 555.52 626.98 L 553.41 629.52 L 551.31 632.07 L 549.23 634.63 L 547.16 637.21 L 545.10 639.79 L 543.06 642.39 L 541.04 645.00 L 539.03 647.62 L 537.03 650.25 L 535.05 652.90 L 533.09 655.55 L 531.14 658.22 L 529.20 660.89 L 527.28 663.58 L 525.38 666.28 L 523.49 668.99 L 521.61 671.71 L 519.75 674.44 L 517.91 677.18 L 516.08 679.94 L 514.27 682.70 L 512.47 685.47 L 510.69 688.25 L 508.92 691.04 L 507.17 693.85 L 505.44 696.66 L 503.72 699.48 L 502.02 702.31 L 500.33 705.15 L 498.66 708.00 L 497.01 710.86 L 495.37 713.73 L 493.75 716.60 L 492.14 719.49 L 490.55 722.39 L 488.98 725.29 L 487.43 728.20 L 485.89 731.12 L 484.36 734.05 L 482.86 736.99 L 481.37 739.94 L 479.90 742.89 L 478.44 745.85 L 477.00 748.82 L 475.58 751.80 L 474.18 754.79 L 472.79 757.78 L 471.42 760.78 L 470.07 763.79 L 468.73 766.81 L 467.41 769.83 L 466.11 772.86 L 464.83 775.90 L 463.56 778.94 L 462.31 781.99 L 461.08 785.05 L 459.86 788.11 L 458.66 791.18 L 457.48 794.26 L 456.32 797.35 L 455.17 800.44 L 454.04 803.53 L 452.93 806.63 L 451.83 809.74 L 450.75 812.85 L 449.69 815.97 L 448.65 819.10 L 447.63 822.23 L 446.62 825.37 L 445.63 828.51 L 444.66 831.65 L 443.70 834.80 L 442.76 837.96 L 441.84 841.12 L 440.94 844.29 L 440.05 847.46 L 439.18 850.63 L 438.33 853.81 L 437.50 857.00 L 436.69 860.19 L 435.89 863.38 L 435.11 866.58 L 434.35 869.78 L 433.60 872.98 L 432.88 876.19 L 432.17 879.40 L 431.48 882.61 L 430.80 885.83 L 430.15 889.06 L 429.51 892.28 L 428.89 895.51 L 428.29 898.74 L 427.70 901.97 L 427.13 905.21 L 426.59 908.45 L 426.05 911.69 L 425.54 914.94 L 425.05 918.19 L 424.57 921.44 L 424.11 924.69 L 423.67 927.94 L 423.25 931.20 L 422.84 934.45 L 422.45 937.71 L 422.08 940.98 L 421.73 944.24 L 421.40 947.50 L 421.08 950.77 L 420.79 954.03 L 420.51 957.30 L 420.25 960.57 L 420.01 963.84 L 419.78 967.11 L 419.58 970.38 L 419.39 973.66 L 419.22 976.93 L 419.07 980.20 L 418.93 983.48 L 418.82 986.75 L 418.72 990.02 L 418.64 993.30 L 418.58 996.57 L 418.54 999.85 L 418.52 1003.12 L 418.52 1006.39 L 418.53 1009.67 L 418.56 1012.94 L 418.61 1016.21 L 418.68 1019.48 L 418.77 1022.75 L 418.87 1026.02 L 419.00 1029.29 L 419.14 1032.55 L 419.30 1035.82 L 419.48 1039.08 L 419.68 1042.34 L 419.90 1045.60 L 420.13 1048.86 L 420.39 1052.12 L 420.66 1055.37 L 420.95 1058.63 L 421.26 1061.88 L 421.59 1065.13 L 421.94 1068.37 L 422.31 1071.62 L 422.69 1074.86 L 423.10 1078.10 L 423.52 1081.33 L 423.96 1084.56 L 424.42 1087.79 L 424.90 1091.02 L 425.40 1094.25 L 425.91 1097.47 L 426.45 1100.68 L 427.01 1103.90 L 427.58 1107.11 L 428.17 1110.31 L 428.78 1113.52 L 429.41 1116.71 L 430.06 1119.91 L 430.73 1123.10 L 431.42 1126.29 L 432.13 1129.47 L 432.85 1132.65 L 433.60 1135.82 L 434.36 1138.99 L 435.14 1142.15 L 435.94 1145.31 L 436.77 1148.47 L 437.61 1151.61 L 438.46 1154.76 L 439.34 1157.90 L 440.24 1161.03 L 441.16 1164.16 L 442.09 1167.28 L 443.05 1170.40 L 444.02 1173.51 L 445.02 1176.62 L 446.03 1179.72 L 447.06 1182.81 L 448.11 1185.90 L 449.17 1188.98 L 450.26 1192.06 L 451.37 1195.13 L 452.49 1198.19 L 453.63 1201.25 L 454.79 1204.30 L 455.97 1207.34 L 457.16 1210.38 L 458.38 1213.41 L 459.61 1216.44 L 460.86 1219.46 L 462.12 1222.47 L 463.41 1225.47 L 464.71 1228.47 L 466.03 1231.46 L 467.37 1234.45 L 468.72 1237.42 L 470.09 1240.39 L 471.48 1243.36 L 472.89 1246.31 L 474.31 1249.26 L 475.75 1252.20 L 477.21 1255.13 L 478.68 1258.06 L 480.17 1260.97 L 481.68 1263.88 L 483.20 1266.78 L 484.74 1269.68 L 486.30 1272.56 L 487.87 1275.44 L 489.46 1278.31 L 491.06 1281.17 L 492.69 1284.02 L 494.32 1286.87 L 495.98 1289.71 L 497.65 1292.53 L 499.33 1295.35 L 501.03 1298.16 L 502.75 1300.97 L 504.48 1303.76 L 506.23 1306.54 L 507.99 1309.32 L 509.77 1312.09 L 511.57 1314.84 L 513.38 1317.59 L 515.20 1320.33 L 517.04 1323.06 L 518.89 1325.78 L 520.76 1328.49 L 522.65 1331.19 L 524.54 1333.89 L 526.46 1336.57 L 528.39 1339.24 L 530.33 1341.90 L 532.29 1344.56 L 534.26 1347.20 L 536.24 1349.83 L 538.24 1352.46 L 540.26 1355.07 L 542.29 1357.67 L 544.33 1360.27 L 546.38 1362.85 L 548.45 1365.42 L 550.54 1367.98 L 552.63 1370.53 L 554.75 1373.07 L 556.87 1375.60 L 559.01 1378.12 L 561.16 1380.63 L 563.32 1383.13 L 565.50 1385.62 L 567.69 1388.09 L 569.90 1390.55 L 572.11 1393.01 L 574.34 1395.45 L 576.59 1397.88 L 578.84 1400.30 L 581.11 1402.71 L 583.39 1405.10 L 585.69 1407.49 L 587.99 1409.86 L 590.31 1412.22 L 592.64 1414.57 L 594.98 1416.91 L 597.34 1419.23 L 599.71 1421.55 L 602.09 1423.85 L 604.48 1426.14 L 606.88 1428.41 L 609.29 1430.68 L 611.72 1432.93 L 614.16 1435.17 L 616.61 1437.40 L 619.07 1439.61 L 621.54 1441.81 L 624.03 1444.00 L 626.52 1446.18 L 629.03 1448.34 L 631.54 1450.49 L 634.07 1452.63 L 636.61 1454.75 L 639.16 1456.86 L 641.72 1458.96 L 644.30 1461.05 L 646.88 1463.12 L 649.47 1465.17 L 652.07 1467.22 L 654.69 1469.25 L 657.31 1471.27 L 659.95 1473.27 L 662.59 1475.26 L 665.25 1477.23 L 667.91 1479.20 L 670.58 1481.14 L 673.27 1483.08 L 675.96 1485.00 L 678.67 1486.90 L 681.38 1488.79 L 684.10 1490.67 L 686.84 1492.53 L 689.58 1494.38 L 692.33 1496.21 L 695.09 1498.03 L 697.86 1499.83 L 700.64 1501.62 L 703.43 1503.39 L 706.23 1505.15 L 709.03 1506.89 L 711.85 1508.62 L 714.67 1510.34 L 717.50 1512.03 L 720.34 1513.72 L 723.19 1515.38 L 726.05 1517.04 L 728.92 1518.67 L 731.79 1520.29 L 734.67 1521.90 L 737.56 1523.49 L 740.46 1525.06 L 743.37 1526.62 L 746.28 1528.16 L 749.21 1529.69 L 752.14 1531.20 L 755.07 1532.69 L 758.02 1534.17 L 760.97 1535.63 L 763.93 1537.08 L 766.90 1538.51 L 769.87 1539.92 L 772.85 1541.32 L 775.84 1542.70 L 778.84 1544.07 L 781.84 1545.42 L 784.85 1546.75 L 787.87 1548.07 L 790.89 1549.37 L 793.92 1550.66 L 796.95 1551.93 L 800.00 1553.18 L 803.04 1554.42 L 806.10 1555.64 L 809.16 1556.85 L 812.23 1558.04 L 815.30 1559.21 L 818.38 1560.37 L 821.46 1561.51 L 824.55 1562.63 L 827.65 1563.74 L 830.75 1564.83 L 833.85 1565.91 L 836.97 1566.97 L 840.08 1568.01 L 843.21 1569.03 L 846.33 1570.04 L 849.47 1571.04 L 852.60 1572.01 L 855.74 1572.98 L 858.89 1573.92 L 862.04 1574.85 L 865.20 1575.76 L 868.36 1576.65 L 871.53 1577.53 L 874.70 1578.40 L 877.87 1579.24 L 881.05 1580.07 L 884.23 1580.88 L 887.42 1581.68 L 890.61 1582.46 L 893.80 1583.22 L 897.00 1583.97 L 900.20 1584.70 L 903.40 1585.41 L 906.61 1586.11 L 909.82 1586.79 L 913.04 1587.45 L 916.26 1588.10 L 919.48 1588.73 L 922.70 1589.34 L 925.93 1589.94 L 929.16 1590.52 L 932.40 1591.08 L 935.63 1591.63 L 938.87 1592.15 L 942.11 1592.67 L 945.36 1593.16 L 948.60 1593.64 L 951.85 1594.10 L 955.10 1594.55 L 958.36 1594.98 L 961.61 1595.39 L 964.87 1595.79 L 968.13 1596.16 L 971.39 1596.52 L 974.65 1596.87 L 977.92 1597.20 L 981.18 1597.51 L 984.45 1597.80 L 987.72 1598.07 L 990.99 1598.33 L 994.26 1598.58 L 997.54 1598.80 L 1000.81 1599.01 L 1004.08 1599.20 L 1007.36 1599.37 L 1010.64 1599.53 L 1013.91 1599.67 L 1017.19 1599.79 L 1020.47 1599.90 L 1023.75 1599.99 L 1027.03 1600.06 L 1030.31 1600.11 L 1033.59 1600.15 L 1036.87 1600.17 L 1040.15 1600.17 L 1043.43 1600.16 L 1046.71 1600.12 L 1049.99 1600.08 L 1053.27 1600.01 L 1056.55 1599.92 L 1059.82 1599.82 L 1063.10 1599.71 L 1066.38 1599.57 L 1069.66 1599.42 L 1072.93 1599.25 L 1076.21 1599.06 L 1079.48 1598.85 L 1082.76 1598.63 L 1086.03 1598.39 L 1089.30 1598.13 L 1092.57 1597.86 L 1095.84 1597.56 L 1099.10 1597.25 L 1102.37 1596.93 L 1105.63 1596.58 L 1108.90 1596.22 L 1112.16 1595.84 L 1115.41 1595.44 L 1118.67 1595.03 L 1121.92 1594.59 L 1125.18 1594.14 L 1128.43 1593.67 L 1131.67 1593.19 L 1134.92 1592.69 L 1138.16 1592.17 L 1141.40 1591.63 L 1144.64 1591.07 L 1147.88 1590.50 L 1151.11 1589.90 L 1154.34 1589.30 L 1157.56 1588.67 L 1160.79 1588.02 L 1164.01 1587.36 L 1167.22 1586.68 L 1170.44 1585.98 L 1173.65 1585.27 L 1176.86 1584.54 L 1180.06 1583.79 L 1183.26 1583.02 L 1186.45 1582.24 L 1189.65 1581.44 L 1192.83 1580.62 L 1196.02 1579.78 L 1199.20 1578.93 L 1202.37 1578.06 L 1205.54 1577.18 L 1208.71 1576.27 L 1211.87 1575.35 L 1215.03 1574.42 L 1218.18 1573.46 L 1221.33 1572.49 L 1224.47 1571.50 L 1227.61 1570.50 L 1230.74 1569.48 L 1233.87 1568.44 L 1236.99 1567.39 L 1240.11 1566.32 L 1243.22 1565.23 L 1246.33 1564.13 L 1249.43 1563.01 L 1252.52 1561.88 L 1255.61 1560.72 L 1258.70 1559.56 L 1261.77 1558.37 L 1264.84 1557.17 L 1267.91 1555.95 L 1270.97 1554.72 L 1274.02 1553.47 L 1277.07 1552.21 L 1280.11 1550.93 L 1283.14 1549.63 L 1286.16 1548.32 L 1289.18 1546.99 L 1292.20 1545.65 L 1295.20 1544.29 L 1298.20 1542.91 L 1301.19 1541.52 L 1304.18 1540.12 L 1307.15 1538.70 L 1310.12 1537.26 L 1313.08 1535.81 L 1316.04 1534.34 L 1318.98 1532.85 L 1321.92 1531.36 L 1324.85 1529.84 L 1327.78 1528.31 L 1330.69 1526.77 L 1333.60 1525.21 L 1336.50 1523.64 L 1339.39 1522.05 L 1342.27 1520.44 L 1345.14 1518.82 L 1348.01 1517.19 L 1350.86 1515.54 L 1353.71 1513.88 L 1356.55 1512.20 L 1359.37 1510.50 L 1362.19 1508.80 L 1365.01 1507.07 L 1367.81 1505.34 L 1370.60 1503.58 L 1373.38 1501.82 L 1376.16 1500.04 L 1378.92 1498.24 L 1381.67 1496.43 L 1384.42 1494.61 L 1387.15 1492.77 L 1389.88 1490.92 L 1392.59 1489.05 L 1395.29 1487.17 L 1397.99 1485.28 L 1400.67 1483.37 L 1403.34 1481.45 L 1406.01 1479.51 L 1408.66 1477.56 L 1411.30 1475.59 L 1413.93 1473.62 L 1416.55 1471.62 L 1419.16 1469.62 L 1421.76 1467.60 L 1424.34 1465.57 L 1426.92 1463.52 L 1429.48 1461.46 L 1432.03 1459.38 L 1434.57 1457.30 L 1437.10 1455.20 L 1439.62 1453.08 L 1442.13 1450.95 L 1444.62 1448.81 L 1447.10 1446.66 L 1449.57 1444.49 L 1452.03 1442.31 L 1454.47 1440.12 L 1456.91 1437.91 L 1459.33 1435.69 L 1461.74 1433.46 L 1464.13 1431.21 L 1466.51 1428.96 L 1468.88 1426.69 L 1471.24 1424.40 L 1473.58 1422.10 L 1475.91 1419.79 L 1478.23 1417.47 L 1480.54 1415.14 L 1482.83 1412.79 L 1485.11 1410.43 L 1487.37 1408.06 L 1489.62 1405.67 L 1491.86 1403.28 L 1494.08 1400.87 L 1496.29 1398.44 L 1498.48 1396.01 L 1500.67 1393.56 L 1502.83 1391.10 L 1504.99 1388.63 L 1507.12 1386.15 L 1509.25 1383.66 L 1511.36 1381.15 L 1513.45 1378.63 L 1515.53 1376.10 L 1517.60 1373.56 L 1519.65 1371.00 L 1521.68 1368.44 L 1523.70 1365.86 L 1525.71 1363.27 L 1527.70 1360.67 L 1529.67 1358.05 L 1531.63 1355.43 L 1533.58 1352.79 L 1535.50 1350.14 L 1537.42 1347.49 L 1539.31 1344.81 L 1541.19 1342.13 L 1543.06 1339.44 L 1544.91 1336.74 L 1546.74 1334.02 L 1548.55 1331.29 L 1550.35 1328.56 L 1552.14 1325.81 L 1553.91 1323.05 L 1555.66 1320.28 L 1557.39 1317.50 L 1559.11 1314.71 L 1560.81 1311.91 L 1562.50 1309.09 L 1564.17 1306.27 L 1565.82 1303.44 L 1567.46 1300.60 L 1569.08 1297.75 L 1570.68 1294.89 L 1572.27 1292.02 L 1573.84 1289.14 L 1575.40 1286.25 L 1576.93 1283.35 L 1578.46 1280.44 L 1579.96 1277.53 L 1581.45 1274.60 L 1582.92 1271.67 L 1584.37 1268.72 L 1585.81 1265.77 L 1587.23 1262.81 L 1588.64 1259.84 L 1590.03 1256.86 L 1591.40 1253.88 L 1592.75 1250.89 L 1594.09 1247.89 L 1595.41 1244.88 L 1596.71 1241.86 L 1598.00 1238.84 L 1599.27 1235.80 L 1600.53 1232.76 L 1601.76 1229.72 L 1602.98 1226.66 L 1604.18 1223.60 L 1605.37 1220.54 L 1606.54 1217.46 L 1607.69 1214.38 L 1608.82 1211.29 L 1609.94 1208.20 L 1611.04 1205.10 L 1612.12 1201.99 L 1613.19 1198.88 L 1614.24 1195.76 L 1615.27 1192.63 L 1616.28 1189.50 L 1617.28 1186.36 L 1618.26 1183.22 L 1619.22 1180.07 L 1620.16 1176.91 L 1621.09 1173.76 L 1622.00 1170.59 L 1622.89 1167.42 L 1623.77 1164.25 L 1624.63 1161.07 L 1625.47 1157.88 L 1626.29 1154.69 L 1627.10 1151.50 L 1627.88 1148.30 L 1628.65 1145.10 L 1629.41 1141.89 L 1630.14 1138.68 L 1630.86 1135.46 L 1631.56 1132.24 L 1632.24 1129.02 L 1632.91 1125.79 L 1633.55 1122.56 L 1634.18 1119.33 L 1634.79 1116.09 L 1635.39 1112.85 L 1635.96 1109.61 L 1636.52 1106.36 L 1637.06 1103.11 L 1637.58 1099.85 L 1638.09 1096.60 L 1638.57 1093.34 L 1639.04 1090.08 L 1639.49 1086.82 L 1639.93 1083.55 L 1640.34 1080.28 L 1640.74 1077.01 L 1641.12 1073.74 L 1641.48 1070.47 L 1641.82 1067.19 L 1642.14 1063.91 L 1642.45 1060.63 L 1642.74 1057.35 L 1643.01 1054.07 L 1643.26 1050.79 L 1643.49 1047.50 L 1643.71 1044.22 L 1643.90 1040.93 L 1644.08 1037.64 L 1644.24 1034.36 L 1644.39 1031.07 L 1644.51 1027.78 L 1644.61 1024.49 L 1644.70 1021.20 L 1644.77 1017.91 L 1644.82 1014.62 L 1644.85 1011.33 L 1644.86 1008.04 L 1644.86 1004.75 L 1644.83 1001.46 L 1644.79 998.17 L 1644.73 994.88 L 1644.65 991.60 L 1644.55 988.31 L 1644.44 985.02 L 1644.30 981.74 L 1644.15 978.46 L 1643.97 975.17 L 1643.78 971.89 L 1643.57 968.61 L 1643.34 965.33 L 1643.09 962.06 L 1642.83 958.78 L 1642.54 955.51 L 1642.24 952.24 L 1641.91 948.97 L 1641.57 945.70 L 1641.21 942.44 L 1640.83 939.18 L 1640.43 935.92 L 1640.01 932.66 L 1639.57 929.41 L 1639.12 926.16 L 1638.64 922.91 L 1638.15 919.66 L 1637.63 916.42 L 1637.10 913.18 L 1636.55 909.95 L 1635.98 906.72 L 1635.39 903.49 L 1634.79 900.26 L 1634.16 897.04 L 1633.52 893.82 L 1632.85 890.61 L 1632.17 887.40 L 1631.47 884.19 L 1630.75 880.99 L 1630.02 877.79 L 1629.26 874.60 L 1628.49 871.41 L 1627.70 868.22 L 1626.89 865.04 L 1626.06 861.87 L 1625.22 858.69 L 1624.36 855.53 L 1623.48 852.36 L 1622.58 849.21 L 1621.66 846.05 L 1620.73 842.91 L 1619.78 839.76 L 1618.81 836.63 L 1617.82 833.50 L 1616.82 830.37 L 1615.80 827.25 L 1614.76 824.13 L 1613.70 821.02 L 1612.63 817.92 L 1611.54 814.82 L 1610.43 811.73 L 1609.31 808.64 L 1608.17 805.56 L 1607.01 802.49 L 1605.83 799.42 L 1604.64 796.36 L 1603.43 793.30 L 1602.21 790.25 L 1600.96 787.21 L 1599.70 784.17 L 1598.43 781.14 L 1597.14 778.12 L 1595.83 775.10 L 1594.50 772.10 L 1593.16 769.09 L 1591.80 766.10 L 1590.43 763.11 L 1589.04 760.13 L 1587.63 757.16 L 1586.21 754.19 L 1584.77 751.24 L 1583.32 748.29 L 1581.85 745.34 L 1580.36 742.41 L 1578.86 739.48 L 1577.34 736.56 L 1575.81 733.65 L 1574.26 730.75 L 1572.69 727.85 L 1571.11 724.97 L 1569.52 722.09 L 1567.91 719.22 L 1566.28 716.36 L 1564.64 713.51 L 1562.98 710.66 L 1561.31 707.83 L 1559.62 705.00 L 1557.92 702.19 L 1556.20 699.38 L 1554.47 696.58 L 1552.72 693.79 L 1550.96 691.01 L 1549.18 688.24 L 1547.39 685.48 L 1545.58 682.72 L 1543.76 679.98 L 1541.92 677.25 L 1540.07 674.53 L 1538.21 671.81 L 1536.33 669.11 L 1534.43 666.42 L 1532.53 663.73 L 1530.60 661.06 L 1528.67 658.40 L 1526.72 655.75 L 1524.75 653.10 L 1522.77 650.47 L 1520.78 647.85 L 1518.77 645.24 L 1516.75 642.64 L 1514.72 640.05 L 1512.67 637.48 L 1510.61 634.91 L 1508.53 632.36 L 1506.44 629.81 L 1504.34 627.28 L 1502.22 624.76 L 1500.09 622.25 L 1497.95 619.75 L 1495.79 617.26 L 1493.62 614.79 L 1491.44 612.32 L 1489.24 609.87 L 1487.03 607.43 L 1484.81 605.01 L 1482.57 602.59 L 1480.32 600.19 L 1478.06 597.80 L 1475.79 595.42 L 1473.50 593.05 L 1471.20 590.70 L 1468.89 588.36 L 1466.56 586.03 L 1464.22 583.72 L 1461.87 581.41 L 1459.51 579.12 L 1457.13 576.85 L 1454.74 574.58 L 1452.34 572.33 L 1449.93 570.10 L 1447.51 567.87 L 1445.07 565.66 L 1442.62 563.47 L 1440.16 561.28 L 1437.69 559.11 L 1435.20 556.96 L 1432.71 554.82 L 1430.20 552.69 L 1427.68 550.58 L 1425.15 548.48 L 1422.60 546.39 L 1420.05 544.32 L 1417.48 542.26 L 1414.90 540.22 L 1412.31 538.19 L 1409.71 536.18 L 1407.10 534.18 L 1404.48 532.20 L 1401.84 530.23 L 1399.20 528.28 L 1396.54 526.34 L 1393.87 524.41 L 1391.19 522.50 L 1388.50 520.61 L 1385.80 518.73 L 1383.09 516.87 L 1380.37 515.02 L 1377.64 513.18 L 1374.90 511.37 L 1372.15 509.56 L 1369.39 507.77 L 1366.62 506.00 L 1363.83 504.24 L 1361.04 502.50 L 1358.24 500.77 L 1355.43 499.06 L 1352.61 497.36 L 1349.78 495.68 L 1346.95 494.02 L 1344.10 492.37 L 1341.24 490.73 L 1338.38 489.11 L 1335.50 487.51 L 1332.62 485.92 L 1329.73 484.34 L 1326.83 482.79 L 1323.92 481.24 L 1321.00 479.72 L 1318.08 478.20 L 1315.15 476.71 L 1312.21 475.23 L 1309.26 473.76 L 1306.30 472.32 L 1303.34 470.88 L 1300.36 469.46 L 1297.38 468.06 L 1294.40 466.68 L 1291.40 465.31 L 1288.40 463.95 L 1285.39 462.61 L 1282.38 461.29 L 1279.36 459.98 L 1276.33 458.69 L 1273.29 457.42 L 1270.25 456.16 L 1267.20 454.91 L 1264.14 453.69 L 1261.08 452.48 L 1258.02 451.28 L 1254.94 450.10 L 1251.86 448.94 L 1248.78 447.79 L 1245.68 446.66 L 1242.59 445.54 L 1239.48 444.45 L 1236.38 443.36 L 1233.26 442.30 L 1230.14 441.25 L 1227.02 440.21 L 1223.89 439.20 L 1220.76 438.19 L 1217.62 437.21 L 1214.47 436.24 L 1211.32 435.29 L 1208.17 434.35 L 1205.01 433.43 L 1201.85 432.53 L 1198.69 431.64 L 1195.52 430.77 L 1192.34 429.92 L 1189.16 429.08 L 1185.98 428.26 L 1182.79 427.46 L 1179.60 426.67 L 1176.41 425.90 L 1173.21 425.14 L 1170.01 424.41 L 1166.81 423.69 L 1163.60 422.98 L 1160.39 422.29 L 1157.18 421.62 L 1153.96 420.97 L 1150.75 420.33 L 1147.53 419.71 L 1144.30 419.11 L 1141.08 418.52 L 1137.85 417.95 L 1134.62 417.40 L 1131.38 416.86 L 1128.15 416.34 L 1124.91 415.84 L 1121.67 415.36 L 1118.43 414.89 L 1115.19 414.44 L 1111.95 414.00 L 1108.70 413.59 L 1105.46 413.19 L 1102.21 412.80 L 1098.96 412.44 L 1095.71 412.09 L 1092.46 411.76 L 1089.21 411.44 L 1085.95 411.15 L 1082.70 410.87 L 1079.45 410.61 L 1076.19 410.36 L 1072.94 410.13 L 1069.68 409.92 L 1066.43 409.73 L 1063.17 409.55 L 1059.92 409.40 L 1056.66 409.26 L 1053.41 409.13 L 1050.16 409.03 L 1046.90 408.94 L 1043.65 408.87 L 1040.40 408.81 L 1037.14 408.78 L 1033.89 408.76 L 1030.64 408.76 L 1027.40 408.78 L 1024.15 408.81 L 1020.90 408.87 L 1017.66 408.94 L 1014.41 409.02 L 1011.17 409.13 L 1007.93 409.25 L 1004.69 409.40 L 1001.46 409.55 L 998.22 409.73 L 994.99 409.93 Z" fill="#307CDE"/>
</svg>